<svg width="37" height="37" viewBox="0 0 37 37" fill="none" xmlns="http://www.w3.org/2000/svg">
<g clip-path="url(#clip0)">
<path d="M36.6065 15.0359L19.0679 2.19448C18.7297 1.94689 18.2702 1.94689 17.9322 2.19448L0.393467 15.0359C-0.0349235 15.3496 -0.128002 15.9511 0.185703 16.3795C0.499408 16.8079 1.10102 16.9008 1.52934 16.5873L18.5 4.16162L35.4706 16.5872C35.6418 16.7126 35.8406 16.7729 36.0378 16.7729C36.3338 16.7729 36.6259 16.6367 36.8142 16.3794C37.128 15.9511 37.0349 15.3496 36.6065 15.0359Z" fill="#47DFB1"/>
<path d="M31.9592 16.8049C31.4283 16.8049 30.9978 17.2353 30.9978 17.7663V33.0685H23.3072V24.7156C23.3072 22.0649 21.1506 19.9085 18.5001 19.9085C15.8495 19.9085 13.693 22.065 13.693 24.7156V33.0685H6.00223V17.7664C6.00223 17.2354 5.57174 16.805 5.04088 16.805C4.51001 16.805 4.07953 17.2354 4.07953 17.7664V34.0299C4.07953 34.5609 4.51001 34.9913 5.04088 34.9913H14.6543C15.1599 34.9913 15.5736 34.6007 15.6119 34.1048C15.6142 34.0823 15.6157 34.0578 15.6157 34.0299V24.7156C15.6157 23.1251 16.9096 21.8312 18.5001 21.8312C20.0906 21.8312 21.3845 23.1252 21.3845 24.7156V34.0299C21.3845 34.0576 21.3859 34.0818 21.3882 34.104C21.4261 34.6002 21.84 34.9913 22.3458 34.9913H31.9592C32.4902 34.9913 32.9206 34.5609 32.9206 34.0299V17.7664C32.9205 17.2353 32.4901 16.8049 31.9592 16.8049Z" fill="#47DFB1"/>
</g>
<defs>
<clipPath id="clip0">
<rect width="37" height="37" fill="white"/>
</clipPath>
</defs>
</svg>
