<svg width="37" height="37" viewBox="0 0 37 37" fill="none" xmlns="http://www.w3.org/2000/svg">
<path d="M36.2291 26.2085H33.9166V9.25011C33.9166 7.54962 32.5338 6.16675 30.8333 6.16675H6.16664C4.46616 6.16675 3.08329 7.54955 3.08329 9.25011V26.2085H0.770785C0.344779 26.2085 0 26.5532 0 26.9792V27.7501C0 29.4506 1.3828 30.8335 3.08336 30.8335H33.9167C35.6172 30.8335 37 29.4506 37 27.7501V26.9792C37 26.5532 36.6552 26.2085 36.2291 26.2085ZM4.625 9.25011C4.625 8.40026 5.3168 7.70846 6.16664 7.70846H30.8333C31.6831 7.70846 32.3749 8.40026 32.3749 9.25011V26.2085H22.3541H14.6459H4.625V9.25011ZM33.9166 29.2917H3.08336C2.23351 29.2917 1.54171 28.5999 1.54171 27.7501H3.85421H14.3267L14.8717 28.2951C15.0162 28.4397 15.2119 28.521 15.4167 28.521H21.5834C21.7881 28.521 21.9839 28.4397 22.1284 28.2951L22.6733 27.7501H33.1459H35.4584C35.4584 28.5999 34.7666 29.2917 33.9166 29.2917Z" fill="#47DFB1"/>
</svg>
