<svg width="37" height="37" viewBox="0 0 37 37" fill="none" xmlns="http://www.w3.org/2000/svg">
<path d="M31.6635 3.2019H5.33653C2.39394 3.2019 0 5.59585 0 8.53843V28.4615C0 31.4041 2.39394 33.798 5.33653 33.798H31.6635C34.6061 33.798 37 31.4041 37 28.4615V8.53843C37 5.59585 34.6061 3.2019 31.6635 3.2019ZM34.8654 21.7019H27.0385C25.273 21.7019 23.8365 20.2656 23.8365 18.5C23.8365 16.7344 25.2729 15.298 27.0385 15.298H34.8654V21.7019ZM34.8654 13.1634H27.0385C24.0959 13.1634 21.7019 15.5574 21.7019 18.5C21.7019 21.4425 24.0959 23.8365 27.0385 23.8365H34.8654V28.4615C34.8654 30.227 33.4291 31.6634 31.6635 31.6634H5.33653C3.57101 31.6634 2.13458 30.2271 2.13458 28.4615V8.53843C2.13458 6.77291 3.57093 5.33649 5.33653 5.33649H31.6635C33.429 5.33649 34.8654 6.77284 34.8654 8.53843V13.1634Z" fill="#47DFB1"/>
<path d="M28.4615 17.4329H27.0385C26.449 17.4329 25.9712 17.9108 25.9712 18.5001C25.9712 19.0896 26.4491 19.5674 27.0385 19.5674H28.4615C29.051 19.5674 29.5288 19.0895 29.5288 18.5001C29.5288 17.9107 29.051 17.4329 28.4615 17.4329Z" fill="#47DFB1"/>
</svg>
