<svg width="37" height="37" viewBox="0 0 37 37" fill="none" xmlns="http://www.w3.org/2000/svg">
<path d="M36.4898 0.515875C35.812 -0.162844 34.7121 -0.162844 34.0342 0.515875L0.520907 34.0292C-0.157522 34.7074 -0.157522 35.8064 0.520907 36.4845C0.859977 36.8239 1.30456 36.9935 1.74884 36.9935C2.19313 36.9935 2.63771 36.8239 2.97649 36.4845L36.4898 2.97117C37.1682 2.29303 37.1682 1.19402 36.4898 0.515875Z" fill="#47DFB1"/>
<path d="M8.24869 0.0178223C3.70058 0.0178223 0 3.71869 0 8.2668C0 12.8149 3.70058 16.5155 8.24869 16.5155C12.7971 16.5155 16.4974 12.8146 16.4974 8.26651C16.4974 3.7184 12.7968 0.0178223 8.24869 0.0178223ZM8.24869 13.0421C5.61533 13.0421 3.47309 10.8996 3.47309 8.26651C3.47309 5.63344 5.61562 3.49091 8.24869 3.49091C10.882 3.49091 13.0243 5.63344 13.0243 8.26651C13.0243 10.8996 10.882 13.0421 8.24869 13.0421Z" fill="#47DFB1"/>
<path d="M28.7513 20.4944C24.2032 20.4944 20.5026 24.195 20.5026 28.7431C20.5026 33.2912 24.2032 36.9918 28.7513 36.9918C33.2994 36.9918 37 33.2915 37 28.7431C37 24.1947 33.2994 20.4944 28.7513 20.4944ZM28.7513 33.5184C26.118 33.5184 23.9757 31.3759 23.9757 28.7428C23.9757 26.1097 26.1182 23.9672 28.7513 23.9672C31.3844 23.9672 33.5269 26.1097 33.5269 28.7428C33.5269 31.3759 31.3847 33.5184 28.7513 33.5184Z" fill="#47DFB1"/>
</svg>
