<svg width="11" height="11" viewBox="0 0 11 11" fill="none" xmlns="http://www.w3.org/2000/svg">
<g clip-path="url(#clip0)">
<path d="M8.61421 1.02344H8.14218C8.0532 1.02344 7.98111 1.09555 7.98111 1.1845C7.98111 1.27345 8.0532 1.34557 8.14218 1.34557H8.61421C8.70318 1.34557 8.77527 1.27345 8.77527 1.1845C8.77527 1.09555 8.70316 1.02344 8.61421 1.02344Z" fill="#47DFB1"/>
<path d="M8.61421 1.76367H8.14218C8.0532 1.76367 7.98111 1.83579 7.98111 1.92474C7.98111 2.01369 8.0532 2.0858 8.14218 2.0858H8.61421C8.70318 2.0858 8.77527 2.01369 8.77527 1.92474C8.77527 1.83579 8.70316 1.76367 8.61421 1.76367Z" fill="#47DFB1"/>
<path d="M8.61421 2.50366H8.14218C8.0532 2.50366 7.98111 2.57578 7.98111 2.66473C7.98111 2.75368 8.0532 2.82579 8.14218 2.82579H8.61421C8.70318 2.82579 8.77527 2.75368 8.77527 2.66473C8.77527 2.57578 8.70316 2.50366 8.61421 2.50366Z" fill="#47DFB1"/>
<path d="M8.61421 3.2439H8.14218C8.0532 3.2439 7.98111 3.31601 7.98111 3.40496C7.98111 3.49391 8.0532 3.56603 8.14218 3.56603H8.61421C8.70318 3.56603 8.77527 3.49391 8.77527 3.40496C8.77527 3.31601 8.70316 3.2439 8.61421 3.2439Z" fill="#47DFB1"/>
<path d="M8.61421 3.98389H8.14218C8.0532 3.98389 7.98111 4.056 7.98111 4.14495C7.98111 4.2339 8.0532 4.30602 8.14218 4.30602H8.61421C8.70318 4.30602 8.77527 4.2339 8.77527 4.14495C8.77527 4.056 8.70316 3.98389 8.61421 3.98389Z" fill="#47DFB1"/>
<path d="M2.00678 7.21593H6.76018C6.84915 7.21593 6.92124 7.14381 6.92124 7.05486C6.92124 6.96591 6.84915 6.8938 6.76018 6.8938H2.00678C1.91783 6.8938 1.84572 6.96591 1.84572 7.05486C1.84572 7.14381 1.91783 7.21593 2.00678 7.21593Z" fill="#47DFB1"/>
<path d="M6.76018 7.69922H5.46803C5.37908 7.69922 5.30696 7.77133 5.30696 7.86028C5.30696 7.94923 5.37908 8.02135 5.46803 8.02135H6.76018C6.84915 8.02135 6.92125 7.94923 6.92125 7.86028C6.92125 7.77133 6.84915 7.69922 6.76018 7.69922Z" fill="#47DFB1"/>
<path d="M2.00678 8.02135H4.71621C4.80516 8.02135 4.87728 7.94923 4.87728 7.86028C4.87728 7.77133 4.80516 7.69922 4.71621 7.69922H2.00678C1.91783 7.69922 1.84572 7.77133 1.84572 7.86028C1.84572 7.94923 1.91783 8.02135 2.00678 8.02135Z" fill="#47DFB1"/>
<path d="M5.46803 8.50439H3.29893C3.20998 8.50439 3.13786 8.57651 3.13786 8.66546C3.13786 8.75441 3.20998 8.82653 3.29893 8.82653H5.46803C5.55701 8.82653 5.6291 8.75441 5.6291 8.66546C5.6291 8.57651 5.55701 8.50439 5.46803 8.50439Z" fill="#47DFB1"/>
<path d="M3.04253 2.88808V3.38597H2.31363C2.14005 3.38597 1.99883 3.52719 1.99883 3.70077V5.21395C1.99883 5.30291 2.07094 5.37502 2.15989 5.37502H6.60707C6.69604 5.37502 6.76814 5.30291 6.76814 5.21395V3.70077C6.76814 3.52719 6.62691 3.38597 6.45333 3.38597H5.72443V2.88808C5.72443 2.78064 5.67263 2.67863 5.58587 2.61521L4.5829 1.88226C4.46363 1.79511 4.30336 1.79511 4.1841 1.88226L3.18113 2.61521C3.09433 2.67863 3.04253 2.78062 3.04253 2.88808ZM3.04253 5.05289H2.32094V3.7081H3.04253V5.05289ZM5.72441 3.70808H6.446V5.05287H5.72441V3.70808ZM4.64215 5.05289H4.12477V3.79986C4.12477 3.65722 4.24082 3.54117 4.38346 3.54117C4.5261 3.54117 4.64215 3.65722 4.64215 3.79986V5.05289ZM3.36466 2.88808C3.36466 2.88305 3.36709 2.87829 3.37115 2.8753L4.37414 2.14237C4.37972 2.13829 4.38722 2.13829 4.3928 2.14237L5.39577 2.87532C5.39983 2.87831 5.40225 2.88307 5.40225 2.8881V5.05291H4.96428V3.79988C4.96428 3.47962 4.70372 3.21906 4.38346 3.21906C4.0632 3.21906 3.80263 3.47962 3.80263 3.79988V5.05291H3.36464V2.88808H3.36466Z" fill="#47DFB1"/>
<path d="M9.75456 2.03899C9.84351 2.03899 9.91562 1.96687 9.91562 1.87792V0.363407C9.91562 0.16302 9.7526 0 9.55219 0H3.47842C3.47763 0 3.47686 0.000107377 3.47606 0.000128853C3.39628 0.00131 3.32679 0.0647055 3.31832 0.143735C3.31772 0.149448 3.31736 0.155203 3.31736 0.161087V0.77958H1.44775C1.24736 0.77958 1.08432 0.9426 1.08432 1.14299V10.6366C1.08432 10.837 1.24736 11 1.44775 11H7.31918C7.51956 11 7.68261 10.837 7.68261 10.6366V10.2204H9.55219C9.75258 10.2204 9.91562 10.0574 9.91562 9.85703V2.62904C9.91562 2.54009 9.84353 2.46798 9.75456 2.46798C9.66558 2.46798 9.59349 2.54009 9.59349 2.62904V9.85703C9.59349 9.8798 9.57498 9.89831 9.55219 9.89831H7.68261V9.1969H8.50284C8.65306 9.1969 8.77528 9.0747 8.77528 8.92448V5.13156C8.77528 4.98136 8.65308 4.85914 8.50284 4.85914H7.68261V0.940689C7.68265 0.920867 7.67816 0.898489 7.67084 0.880321C7.65071 0.83052 7.60519 0.793152 7.55266 0.782629C7.55244 0.782587 7.55225 0.782522 7.55203 0.782479L5.1645 0.322132H9.55221C9.575 0.322132 9.59351 0.340643 9.59351 0.363407V1.87792C9.59349 1.96687 9.6656 2.03899 9.75456 2.03899ZM7.68261 5.18127H8.45314V8.87477H7.68261V5.18127ZM7.36047 9.35017H3.00545C2.9165 9.35017 2.84438 9.42229 2.84438 9.51124C2.84438 9.60019 2.9165 9.6723 3.00545 9.6723H7.36047V10.6366C7.36047 10.6593 7.34196 10.6778 7.31918 10.6778H1.44775C1.42498 10.6778 1.40645 10.6593 1.40645 10.6366V9.6723H2.25091C2.33986 9.6723 2.41197 9.60019 2.41197 9.51124C2.41197 9.42229 2.33986 9.35017 2.25091 9.35017H1.40647V6.37026H7.36047V9.35017ZM7.36047 6.04813H1.40647V1.14299C1.40647 1.12022 1.42501 1.10171 1.44777 1.10171H7.36047V6.04813ZM5.83544 0.779558H3.63949V0.356149L5.83544 0.779558Z" fill="#47DFB1"/>
</g>
<defs>
<clipPath id="clip0">
<rect width="11" height="11" fill="white"/>
</clipPath>
</defs>
</svg>
