<svg width="20" height="20" viewBox="0 0 20 20" fill="none" xmlns="http://www.w3.org/2000/svg">
<g clip-path="url(#clip0)">
<path d="M0.649315 13.0447L2.43884 12.0572L0.649158 11.0694C0.253839 10.8512 0.0179005 10.4513 0.0180168 9.99973C0.018095 9.5484 0.254114 9.14882 0.649239 8.93089L2.43919 7.94314L0.649277 6.95523C0.254076 6.7371 0.018095 6.33741 0.018095 5.88603C0.018095 5.43466 0.254076 5.03497 0.649277 4.81684L2.02055 4.05995C2.16207 3.98179 2.34036 4.03323 2.41856 4.17484C2.49673 4.31648 2.44528 4.49465 2.30364 4.57285L0.932367 5.32978C0.7267 5.44325 0.603924 5.65123 0.603924 5.88607C0.603924 6.12092 0.7267 6.32889 0.932367 6.44237L9.10671 10.9541C9.6659 11.2626 10.3336 11.2626 10.8928 10.9541L19.0672 6.44233C19.2728 6.32885 19.3956 6.12088 19.3956 5.88603C19.3956 5.65119 19.2728 5.44322 19.0672 5.32974L10.8927 0.817947C10.3336 0.509036 9.66598 0.509036 9.10671 0.817987L3.3292 4.00686C3.18764 4.08503 3.00935 4.03358 2.93119 3.89194C2.85302 3.7503 2.90447 3.57213 3.04611 3.49393L8.8235 0.305166C9.56004 -0.101715 10.4395 -0.101715 11.1759 0.305127L19.3502 4.81684C19.7455 5.03497 19.9814 5.43466 19.9814 5.88603C19.9814 6.33741 19.7455 6.7371 19.3502 6.95523L17.5604 7.94314L19.3503 8.93085C19.7455 9.14882 19.9815 9.5484 19.9816 9.99973C19.9817 10.4513 19.7457 10.8512 19.3504 11.0694L17.5607 12.0572L19.3503 13.0447C19.7455 13.2631 19.9814 13.6629 19.9814 14.1143C19.9814 14.5656 19.7455 14.9655 19.3502 15.1839L16.1816 16.9328C16.1367 16.9575 16.0882 16.9693 16.0403 16.9693C15.9371 16.9693 15.837 16.9146 15.7836 16.8178C15.7054 16.6762 15.7569 16.498 15.8985 16.4198L19.067 14.671C19.2727 14.5573 19.3956 14.3492 19.3955 14.1143C19.3955 13.8793 19.2727 13.6712 19.0671 13.5576L16.9545 12.3918L11.1761 15.5812C10.8078 15.7846 10.4038 15.8862 9.99973 15.8862C9.59574 15.8862 9.1916 15.7845 8.82339 15.5812L3.04498 12.3918L0.932405 13.5575C0.72666 13.6712 0.603846 13.8793 0.603846 14.1143C0.603846 14.3492 0.726662 14.5573 0.932289 14.6709L9.10663 19.1823C9.66574 19.4908 10.3336 19.4908 10.8931 19.1823L14.8725 16.9858C15.0142 16.9077 15.1924 16.9591 15.2706 17.1007C15.3488 17.2423 15.2973 17.4205 15.1557 17.4987L11.1762 19.6952C10.8078 19.8984 10.4038 20 9.99981 20C9.59582 20 9.19179 19.8984 8.82362 19.6952L0.649158 15.1838C0.253996 14.9655 0.018095 14.5657 0.018095 14.1143C0.018055 13.6629 0.253996 13.2631 0.649315 13.0447ZM9.10656 15.0683C9.66582 15.3771 10.3337 15.3771 10.8931 15.0683L19.0673 10.5565C19.273 10.4429 19.3958 10.2349 19.3957 9.99989C19.3957 9.76508 19.273 9.55723 19.0673 9.44382L16.9542 8.27775L11.1759 11.467C10.8077 11.6702 10.4037 11.7718 9.99977 11.7718C9.59582 11.7718 9.19187 11.6702 8.82362 11.467L3.04537 8.27775L0.932173 9.44386C0.726583 9.55723 0.603848 9.76508 0.603807 9.99989C0.603729 10.2349 0.726543 10.443 0.932249 10.5565L9.10656 15.0683Z" fill="#47DFB1"/>
</g>
<defs>
<clipPath id="clip0">
<rect width="20" height="20" fill="white" transform="matrix(-1 0 0 1 20 0)"/>
</clipPath>
</defs>
</svg>
