<svg width="19" height="19" viewBox="0 0 19 19" fill="none" xmlns="http://www.w3.org/2000/svg">
<g clip-path="url(#clip0)">
<path d="M0.115966 9.77977L6.05347 15.7173C6.2081 15.8719 6.45859 15.8719 6.61319 15.7173C6.76782 15.5626 6.76782 15.3122 6.61319 15.1576L1.35137 9.89574L18.6042 9.89574C18.823 9.89574 19 9.71869 19 9.49989C19 9.2811 18.823 9.10405 18.6042 9.10405L1.35137 9.10405L6.61319 3.84227C6.76782 3.68764 6.76782 3.43715 6.61319 3.28255C6.53589 3.20525 6.43458 3.16658 6.33331 3.16658C6.23204 3.16658 6.13076 3.20525 6.05343 3.28255L0.115928 9.22005C-0.0386682 9.37465 -0.0386682 9.62514 0.115966 9.77977Z" fill="#47DFB1"/>
</g>
<defs>
<clipPath id="clip0">
<rect width="19" height="19" fill="white" transform="translate(19 19) rotate(180)"/>
</clipPath>
</defs>
</svg>
