<svg width="19" height="13" viewBox="0 0 19 13" fill="none" xmlns="http://www.w3.org/2000/svg">
<path d="M18.884 6.22023L12.9465 0.282724C12.7919 0.128089 12.5414 0.128089 12.3868 0.282724C12.2322 0.437359 12.2322 0.687847 12.3868 0.842445L17.6486 6.10426L0.395846 6.10426C0.177049 6.10426 0 6.28131 0 6.50011C0 6.7189 0.177049 6.89595 0.395846 6.89595L17.6486 6.89595L12.3868 12.1577C12.2322 12.3124 12.2322 12.5629 12.3868 12.7175C12.4641 12.7948 12.5654 12.8334 12.6667 12.8334C12.768 12.8334 12.8692 12.7948 12.9466 12.7175L18.8841 6.77995C19.0387 6.62535 19.0387 6.37486 18.884 6.22023Z" fill="#47DFB1"/>
</svg>
