<svg width="14" height="8" viewBox="0 0 14 8" fill="none" xmlns="http://www.w3.org/2000/svg">
<path d="M2.3427 1.83859C2.52139 1.08024 3.097 0.523438 3.77814 0.523438C4.45927 0.523438 5.03488 1.08024 5.21368 1.83859H14V2.83469H5.21358C5.03488 3.59291 4.45927 4.14984 3.77814 4.14984C3.097 4.14984 2.52139 3.59291 2.34259 2.83469H0V1.83859H2.3427ZM3.77814 3.15375C4.1492 3.15375 4.45105 2.78722 4.45105 2.33664C4.45105 1.88606 4.14909 1.51953 3.77814 1.51953C3.40707 1.51953 3.10522 1.88606 3.10522 2.33664C3.10522 2.78722 3.40707 3.15375 3.77814 3.15375Z" fill="#47DFB1"/>
<path d="M11.3708 4C12.052 4 12.6276 4.55693 12.8063 5.31515H14V6.31125H12.8063C12.6276 7.0696 12.0519 7.6264 11.3707 7.6264C10.6896 7.6264 10.114 7.0696 9.93529 6.31125H0V5.31515H9.93529C10.114 4.55693 10.6897 4 11.3708 4ZM11.3708 6.63031C11.7418 6.63031 12.0436 6.26378 12.0436 5.8132C12.0436 5.36275 11.7418 4.99609 11.3708 4.99609C10.9998 4.99609 10.6979 5.36275 10.6979 5.8132C10.6979 6.26378 10.9998 6.63031 11.3708 6.63031Z" fill="#47DFB1"/>
</svg>
